<?xml version="1.0" standalone="no"?>
<!DOCTYPE svg PUBLIC "-//W3C//DTD SVG 20010904//EN"
 "http://www.w3.org/TR/2001/REC-SVG-20010904/DTD/svg10.dtd">
<svg version="1.0" xmlns="http://www.w3.org/2000/svg"
 width="125.000000pt" height="129.000000pt" viewBox="0 0 125.000000 129.000000"
 preserveAspectRatio="xMidYMid meet">
<metadata>
Created by potrace 1.15, written by Peter Selinger 2001-2017
</metadata>
<g transform="translate(0.000000,129.000000) scale(0.100000,-0.100000)"
fill="#000000" stroke="none">
<path d="M455 1274 c-92 -48 -121 -106 -130 -272 -6 -110 -5 -125 10 -142 10
-11 24 -20 31 -20 8 0 17 -12 20 -27 10 -42 32 -80 68 -121 43 -49 50 -77 22
-90 -11 -5 -34 -7 -51 -5 -31 4 -285 -82 -331 -112 -66 -43 -93 -133 -94 -311
0 -113 1 -114 167 -114 87 0 133 -4 135 -11 2 -6 4 18 4 52 0 35 -1 49 -3 32
-4 -27 -9 -33 -28 -33 -24 0 -24 1 -27 118 -2 96 -6 117 -18 117 -12 0 -16
-21 -18 -117 l-3 -118 -72 0 c-40 0 -77 4 -82 8 -13 9 -2 234 13 272 21 54 63
78 243 140 l97 33 38 -31 c103 -83 255 -83 358 0 l38 31 97 -33 c180 -62 222
-86 243 -140 15 -38 26 -263 13 -272 -5 -4 -42 -8 -82 -8 l-72 0 -3 117 c-2
97 -6 118 -18 118 -12 0 -16 -21 -18 -118 -3 -116 -3 -117 -26 -117 -14 0 -27
6 -29 13 -3 6 -5 -10 -5 -38 0 -27 2 -42 5 -32 4 15 19 17 137 17 165 0 166 1
166 116 -1 176 -28 266 -94 309 -46 31 -300 116 -331 112 -16 -2 -40 0 -51 5
-28 13 -21 41 22 90 36 41 58 79 68 121 3 15 12 27 20 27 7 0 21 9 31 20 15
17 16 32 10 142 -5 81 -13 137 -24 163 -19 43 -77 100 -118 116 -13 5 -86 9
-161 9 -104 0 -144 -4 -167 -16z m298 -35 c49 -13 101 -67 114 -117 l10 -40
-41 19 c-35 16 -66 19 -211 19 -145 0 -176 -3 -211 -19 l-41 -19 10 40 c12 48
64 104 110 117 44 13 214 13 260 0z m72 -184 c18 -9 37 -27 43 -40 l12 -25
-255 0 -255 0 12 24 c21 47 58 56 241 56 132 0 176 -3 202 -15z m-5 -172 c0
-71 -25 -127 -73 -170 -131 -115 -317 -16 -317 167 l0 60 195 0 195 0 0 -57z
m-200 -268 c14 0 40 4 58 7 29 7 32 6 32 -18 0 -19 8 -28 33 -39 l32 -14 -45
-20 c-60 -27 -150 -27 -210 0 l-45 20 33 14 c24 11 32 20 32 40 0 23 3 25 28
18 15 -4 38 -8 52 -8z"/>
</g>
</svg>
