<?xml version="1.0" standalone="no"?>
<!DOCTYPE svg PUBLIC "-//W3C//DTD SVG 20010904//EN"
 "http://www.w3.org/TR/2001/REC-SVG-20010904/DTD/svg10.dtd">
<svg version="1.0" xmlns="http://www.w3.org/2000/svg"
 width="129.000000pt" height="129.000000pt" viewBox="0 0 129.000000 129.000000"
 preserveAspectRatio="xMidYMid meet">
<metadata>
Created by potrace 1.15, written by Peter Selinger 2001-2017
</metadata>
<g transform="translate(0.000000,129.000000) scale(0.100000,-0.100000)"
fill="#000000" stroke="none">
<path d="M460 1276 c-200 -58 -370 -224 -437 -426 -31 -94 -31 -316 0 -410 60
-182 217 -346 393 -413 53 -20 78 -22 229 -22 151 0 176 2 229 22 176 67 333
231 393 413 17 54 21 89 21 205 0 116 -4 151 -21 205 -60 182 -218 348 -393
412 -50 19 -83 23 -214 25 -105 1 -170 -2 -200 -11z m363 -65 c195 -67 326
-202 393 -401 26 -77 26 -253 0 -330 -68 -202 -204 -338 -406 -406 -77 -26
-253 -26 -330 0 -202 68 -338 204 -406 406 -26 77 -26 253 0 330 76 226 261
390 481 424 62 9 210 -3 268 -23z"/>
</g>
</svg>
