<?xml version="1.0" standalone="no"?>
<!DOCTYPE svg PUBLIC "-//W3C//DTD SVG 20010904//EN"
 "http://www.w3.org/TR/2001/REC-SVG-20010904/DTD/svg10.dtd">
<svg version="1.0" xmlns="http://www.w3.org/2000/svg"
 width="134.000000pt" height="129.000000pt" viewBox="0 0 134.000000 129.000000"
 preserveAspectRatio="xMidYMid meet">
<metadata>
Created by potrace 1.15, written by Peter Selinger 2001-2017
</metadata>
<g transform="translate(0.000000,129.000000) scale(0.100000,-0.100000)"
fill="#000000" stroke="none">
<path d="M651 1264 c-29 -37 -27 -89 4 -119 13 -14 29 -25 35 -25 7 0 10 -13
8 -31 -3 -28 -9 -33 -64 -54 -68 -24 -177 -97 -217 -145 -25 -30 -27 -30 -125
-30 -76 0 -102 -4 -112 -15 -24 -29 5 -44 89 -47 l77 -3 -18 -42 -19 -43 -137
0 c-146 0 -182 -9 -169 -44 6 -14 26 -16 148 -16 l142 0 -7 -31 c-3 -17 -6
-40 -6 -50 0 -16 -8 -19 -56 -19 -71 0 -98 -13 -84 -40 9 -17 21 -20 73 -20
l63 0 10 -50 10 -49 -95 -3 c-89 -3 -96 -5 -99 -24 -4 -28 19 -34 129 -34 l86
0 24 -52 c38 -83 149 -189 245 -235 76 -37 83 -38 206 -41 185 -6 272 24 385
131 120 113 160 209 162 386 2 130 -14 200 -67 291 -45 76 -141 164 -224 204
-42 20 -83 36 -92 36 -31 0 -20 60 16 90 41 34 44 86 8 125 -23 24 -27 25
-166 25 -142 0 -143 0 -163 -26z m278 -269 c213 -51 361 -241 361 -464 -1
-143 -40 -241 -135 -337 -205 -207 -542 -187 -717 43 -60 80 -89 158 -95 259
-22 327 268 574 586 499z"/>
<path d="M752 939 c-220 -36 -383 -261 -343 -475 25 -140 110 -251 237 -311
206 -98 446 -8 548 207 29 60 31 73 31 170 0 93 -3 111 -27 163 -33 70 -121
165 -186 200 -80 43 -174 60 -260 46z m195 -81 c42 -15 75 -38 120 -83 53 -53
64 -71 83 -134 42 -137 15 -254 -80 -355 -72 -76 -149 -110 -255 -110 -65 0
-91 5 -137 26 -78 36 -142 98 -180 175 -28 57 -32 75 -32 147 1 111 28 179
103 255 72 74 135 100 243 100 56 1 93 -5 135 -21z"/>
</g>
</svg>
