<?xml version="1.0" standalone="no"?>
<!DOCTYPE svg PUBLIC "-//W3C//DTD SVG 20010904//EN"
 "http://www.w3.org/TR/2001/REC-SVG-20010904/DTD/svg10.dtd">
<svg version="1.0" xmlns="http://www.w3.org/2000/svg"
 width="120.000000pt" height="129.000000pt" viewBox="0 0 120.000000 129.000000"
 preserveAspectRatio="xMidYMid meet">
<metadata>
Created by potrace 1.15, written by Peter Selinger 2001-2017
</metadata>
<g transform="translate(0.000000,129.000000) scale(0.100000,-0.100000)"
fill="#000000" stroke="none">
<path d="M16 1274 c-14 -14 -16 -85 -16 -629 0 -544 2 -615 16 -629 14 -14 71
-16 483 -16 441 0 469 1 484 18 14 16 17 44 17 182 l0 163 -25 -23 c-24 -23
-25 -28 -25 -157 l0 -133 -450 0 -450 0 0 595 0 595 255 0 255 0 0 -165 c0
-163 0 -166 25 -190 24 -25 27 -25 195 -25 l170 0 0 -132 1 -133 24 28 c24 27
25 34 25 162 l0 133 -72 69 c-40 38 -129 122 -197 186 l-124 117 -288 0 c-248
0 -290 -2 -303 -16z m820 -277 l82 -77 -149 0 -149 0 0 142 0 142 68 -65 c37
-35 104 -99 148 -142z"/>
<path d="M207 753 c-4 -3 -7 -17 -7 -30 l0 -23 321 0 320 0 -3 28 -3 27 -311
3 c-171 1 -313 -1 -317 -5z"/>
<path d="M200 585 l0 -25 320 0 320 0 0 25 0 25 -320 0 -320 0 0 -25z"/>
<path d="M200 405 l0 -25 250 0 250 0 0 25 0 25 -250 0 -250 0 0 -25z"/>
<path d="M200 285 c0 -14 6 -25 13 -26 15 -1 329 -1 340 0 4 1 7 12 7 26 l0
25 -180 0 -180 0 0 -25z"/>
</g>
</svg>
