<?xml version="1.0" standalone="no"?>
<!DOCTYPE svg PUBLIC "-//W3C//DTD SVG 20010904//EN"
 "http://www.w3.org/TR/2001/REC-SVG-20010904/DTD/svg10.dtd">
<svg version="1.0" xmlns="http://www.w3.org/2000/svg"
 width="68.000000pt" height="56.000000pt" viewBox="0 0 68.000000 56.000000"
 preserveAspectRatio="xMidYMid meet">
<metadata>
Created by potrace 1.15, written by Peter Selinger 2001-2017
</metadata>
<g transform="translate(0.000000,56.000000) scale(0.100000,-0.100000)"
fill="#000000" stroke="none">
<path d="M0 280 l0 -280 240 0 c233 0 240 1 240 20 0 11 7 20 15 20 9 0 18 8
22 18 3 9 13 25 21 35 13 14 14 25 5 57 -5 22 -6 37 -2 34 5 -3 9 0 9 5 0 6 7
11 15 11 8 0 15 6 15 14 0 10 7 12 22 8 17 -4 20 -2 15 11 -5 12 -1 17 13 17
25 0 25 8 3 32 -10 11 -13 19 -8 18 22 -5 45 1 45 10 0 6 -8 10 -17 11 -15 0
-14 3 5 16 26 19 29 33 5 33 -17 1 -17 1 0 11 9 5 17 17 17 25 0 11 -7 13 -27
8 -27 -7 -28 -6 -10 13 9 11 17 30 17 42 0 18 -4 21 -22 16 -17 -6 -20 -4 -15
9 7 18 -1 46 -13 46 -4 0 -19 -17 -33 -37 -15 -21 -43 -51 -63 -67 l-36 -28 2
38 c2 22 2 56 1 77 l-1 37 -240 0 -240 0 0 -280z"/>
</g>
</svg>
